# xmcd
#
# Track frame offsets:
#	150
#	12278
#	30413
#	46088
#	66933
#	93438
#	105400
#	118958
#	140315
#	160113
#	181040
#	193313
#	214083
#	223548
#
# Disc length: 3282 seconds
#
# Revision: 6
# Processed by: cddbd v1.5PL3 Copyright (c) Steve Scherf et al.
# Submitted via: dBpowerAMP V4.0
#
DISCID=bc0cd00e
DTITLE=Jefferson Airplane - The Roar Of Jefferson Airplane
DYEAR=2001
DGENRE=Rock
TTITLE0=It's No Secret
TTITLE1=Go To Her
TTITLE2=Greasy Heart
TTITLE3=The Ballad Of You and Me and Pooneil
TTITLE4=The House At Pooneil Corners
TTITLE5=Plastic Fantastic Lover
TTITLE6=Somebody To Love
TTITLE7=3/5 Of A Mile In 10 Seconds
TTITLE8=Long John Silver
TTITLE9=Feel So Good
TTITLE10=The Last Wall Of The Castle
TTITLE11=Eat Starch Mom
TTITLE12=Volunteers
TTITLE13=The Other Side Of This Life
EXTD=
EXTT0=
EXTT1=
EXTT2=
EXTT3=
EXTT4=
EXTT5=
EXTT6=
EXTT7=
EXTT8=
EXTT9=
EXTT10=
EXTT11=
EXTT12=
EXTT13=
PLAYORDER=
